<?xml version="1.0" standalone="yes"?>
<svg xmlns="http://www.w3.org/2000/svg" width="549" height="241">
<path style="fill:#fefefe; stroke:none;" d="M9 2L10 3L9 2M529 3L530 4L529 3M19 4L20 5L19 4M332 5L333 6L332 5M145 8L146 9L145 8M257 10L258 11L257 10M115 11L116 12L115 11M412 11L413 12L412 11M305 12L306 13L305 12M172 15L173 16L172 15M434 15L435 16L434 15M269 16L270 17L269 16M87 19L88 20L87 19M169 20L170 21L169 20M232 20L233 21L232 20M39 23L40 24L39 23M508 23L509 24L508 23M61 25L62 26L61 25M222 25L223 26L222 25M315 27L316 28L315 27M309 29L310 30L309 29M370 32L371 33L370 32M123 34L124 35L123 34M378 37L379 38L378 37M26 38L27 39L26 38M175 38L176 39L175 38M526 40L527 41L526 40M546 40L547 41L546 40M167 41L168 42L167 41M84 42L85 43L84 42M353 42L354 43L353 42M156 43L157 44L156 43M92 45L93 46L92 45M218 47L219 48L218 47M307 48L308 49L307 48M323 48L324 49L323 48M496 48L497 49L496 48M123 50L124 51L123 50M209 50L210 51L209 50M521 53L522 54L521 53M79 54L80 55L79 54z"/>
<path style="fill:#000000; stroke:none;" d="M88 54L83 57L82 59L78 60L77 62L75 62L75 63L73 63L71 64L70 66L68 66L68 67L66 67L64 68L63 70L61 70L61 71L59 71L57 72L56 74L54 74L54 75L52 75L50 76L49 78L47 78L47 79L45 79L43 80L42 82L40 82L40 83L38 83L35 85L35 89L35 90L35 91L35 92L35 93L35 94L35 95L35 96L35 103L38 105L43 107L43 103L43 102L43 101L43 100L43 99L43 98L43 97L43 96L43 90L45 88L51 86L52 84L54 84L54 83L56 83L58 82L59 80L61 80L61 79L63 79L65 78L66 76L68 76L68 75L70 75L72 74L73 72L75 72L75 71L77 71L79 70L80 68L82 68L82 67L84 67L86 66L87 64L89 63L93 63L96 65L96 66L98 66L100 67L101 69L103 69L103 70L105 70L107 71L108 73L112 74L113 76L115 76L115 77L117 77L117 78L119 78L119 79L121 79L122 81L126 82L127 84L131 85L132 87L136 88L139 90L139 94L139 95L139 96L139 97L139 98L139 99L139 100L139 101L139 107L141 105L146 103L146 99L146 98L146 97L146 96L146 95L146 94L146 93L146 92L146 85L141 83L140 81L136 80L135 78L133 78L133 77L131 77L129 76L128 74L124 73L123 71L121 71L121 70L119 70L117 69L116 67L114 67L114 66L112 66L110 65L109 63L105 62L104 60L102 60L102 59L100 59L98 58L97 56L95 56L95 55L93 54L88 54z"/>
<path style="fill:#fefefe; stroke:none;" d="M77 55L78 56L77 55M115 55L116 56L115 55M506 56L507 57L506 56M133 57L134 58L133 57M204 59L205 60L204 59z"/>
<path style="fill:#000000; stroke:none;" d="M361 60L361 61L355 61L355 62L351 62L349 64L347 64L347 65L343 66L341 69L340 70L338 70L337 73L335 74L334 75L333 79L332 79L331 81L330 84L330 87L329 87L329 91L329 92L329 93L329 94L329 95L329 96L329 97L329 98L329 104L330 104L330 108L331 111L333 113L333 115L334 115L334 117L337 119L338 120L338 122L341 123L342 125L343 126L348 129L351 130L354 130L354 131L357 131L357 132L361 132L362 132L363 132L364 132L365 132L366 132L367 132L368 132L373 132L376 130L380 130L384 128L385 126L387 126L389 123L391 123L392 122L393 119L396 117L397 113L398 113L398 111L400 109L400 105L401 105L401 98L402 98L402 94L401 94L401 87L400 87L400 83L398 81L398 79L397 79L396 75L393 73L392 72L392 70L389 69L388 67L387 66L383 65L383 64L381 64L379 62L375 62L375 61L369 61L369 60L361 60M187 61L185 65L185 68L183 70L183 73L181 75L180 81L178 83L178 86L176 88L175 94L173 96L173 99L171 101L171 104L169 106L168 112L166 114L166 117L164 119L163 125L161 127L160 131L164 131L165 131L166 131L167 131L168 131L169 131L170 131L171 131L177 130L178 125L180 123L182 115L186 115L187 115L188 115L189 115L190 115L191 115L192 115L193 115L194 115L195 115L196 115L197 115L198 115L199 115L200 115L201 115L202 115L203 115L204 115L205 115L209 115L210 120L211 120L211 123L212 123L212 126L215 131L219 131L220 131L221 131L222 131L223 131L224 131L225 131L226 131L231 131L230 127L228 125L228 122L226 120L225 114L223 112L223 109L221 107L221 104L219 102L218 96L216 94L216 91L214 89L213 83L211 81L211 78L209 76L209 73L207 71L206 65L204 61L200 61L199 61L198 61L197 61L196 61L195 61L194 61L193 61L187 61z"/>
<path style="fill:#fefefe; stroke:none;" d="M306 63L307 64L306 63M36 66L37 67L36 66z"/>
<path style="fill:#000000; stroke:none;" d="M301 67L299 71L299 76L298 76L298 80L295 82L289 83L289 90L290 91L296 91L296 95L296 96L296 97L296 98L296 99L296 100L296 101L296 102L296 103L296 104L296 105L296 106L296 107L296 108L296 109L296 110L296 111L296 112L296 113L296 114L296 121L298 126L300 129L303 131L306 132L315 132L315 131L319 131L325 128L323 126L323 124L321 123L321 121L319 119L316 121L314 121L312 120L311 117L311 113L311 112L311 111L311 110L311 109L311 108L311 107L311 106L311 105L311 104L311 103L311 102L311 101L311 100L311 99L311 98L311 91L315 91L316 91L317 91L318 91L323 91L323 81L319 81L318 81L317 81L316 81L311 81L311 77L311 76L311 75L311 74L311 67L301 67z"/>
<path style="fill:#fefefe; stroke:none;" d="M246 68L247 69L246 68M316 70L317 71L316 70M523 70L524 71L523 70M22 72L23 73L22 72M25 73L26 74L25 73z"/>
<path style="fill:#ffffff; stroke:none;" d="M364 73L358 74L354 76L353 78L351 78L350 79L350 81L348 82L348 84L347 84L346 86L346 90L345 90L345 93L345 102L346 102L346 106L348 110L350 111L351 114L354 115L354 116L356 116L358 118L363 118L363 119L367 119L367 118L372 118L375 117L378 115L381 112L381 110L383 109L384 106L384 102L385 102L385 99L385 90L384 90L384 86L383 83L381 80L378 77L376 77L375 75L372 74L366 73L364 73z"/>
<path style="fill:#fefefe; stroke:none;" d="M287 74L288 75L287 74z"/>
<path style="fill:#ffffff; stroke:none;" d="M195 76L194 81L193 81L193 84L192 84L192 87L191 87L191 90L190 90L190 93L189 93L189 96L188 96L188 99L187 99L186 105L190 105L191 105L192 105L193 105L194 105L195 105L196 105L197 105L198 105L199 105L200 105L201 105L205 105L204 102L204 99L203 99L203 96L202 96L202 93L201 93L201 90L200 90L200 87L199 87L199 84L198 84L198 81L195 76z"/>
<path style="fill:#fefefe; stroke:none;" d="M218 76L219 77L218 76z"/>
<path style="fill:#000000; stroke:none;" d="M437 80L432 81L429 83L424 89L423 83L421 81L417 81L416 81L415 81L414 81L410 81L410 85L410 86L410 87L410 88L410 89L410 90L410 91L410 92L410 93L410 94L410 95L410 96L410 97L410 98L410 99L410 100L410 101L410 102L410 103L410 104L410 105L410 106L410 107L410 108L410 109L410 110L410 111L410 112L410 113L410 114L410 115L410 116L410 117L410 118L410 119L410 120L410 121L410 122L410 123L410 124L410 131L414 131L415 131L416 131L417 131L418 131L419 131L420 131L421 131L425 131L425 127L425 126L425 125L425 124L425 123L425 122L425 121L425 120L425 119L425 118L425 117L425 116L425 115L425 114L425 113L425 112L425 111L425 110L425 109L425 108L425 107L425 106L425 105L425 104L425 99L429 95L432 94L441 94L441 90L442 90L443 82L437 80M465 80L465 81L459 81L457 83L455 83L455 84L453 84L449 88L447 92L447 101L449 105L452 108L453 109L455 109L455 111L453 111L452 112L449 116L449 123L452 127L447 129L445 132L445 139L447 142L450 145L454 147L458 147L458 148L466 148L466 149L470 149L470 148L477 148L480 147L484 145L485 143L487 143L488 142L488 140L491 138L492 135L492 126L490 123L487 120L484 119L480 119L480 118L477 118L473 118L472 118L471 118L470 118L466 118L463 117L461 115L461 114L463 112L470 113L470 112L476 112L478 110L480 110L480 109L482 109L485 106L487 102L488 99L487 92L493 91L494 90L494 83L490 83L489 83L488 83L487 83L486 83L485 83L484 83L483 83L478 83L476 81L469 81L469 80L465 80z"/>
<path style="fill:#fefefe; stroke:none;" d="M99 81L100 82L99 81z"/>
<path style="fill:#000000; stroke:none;" d="M236 81L236 85L236 86L236 87L236 88L236 89L236 90L236 91L236 92L236 93L236 94L236 95L236 96L236 97L236 98L236 99L236 100L236 101L236 102L236 103L236 104L236 105L236 106L236 107L236 108L236 109L236 110L236 111L236 112L236 118L237 121L238 121L238 124L241 128L244 129L244 130L246 131L249 132L258 132L263 130L264 128L268 126L270 131L274 131L275 131L276 131L277 131L281 131L281 127L281 126L281 125L281 124L282 117L282 114L281 114L281 110L281 109L281 108L281 107L281 106L281 105L281 104L281 103L281 102L281 101L281 100L281 99L281 98L281 97L281 96L281 95L281 94L281 93L281 92L281 91L281 90L281 89L281 88L281 87L281 81L277 81L276 81L275 81L274 81L267 81L267 85L267 86L267 87L267 88L267 89L267 90L267 91L267 92L267 93L267 94L267 95L267 96L267 97L267 98L267 99L267 100L267 101L267 102L267 103L267 104L267 105L267 106L267 107L267 108L267 109L267 110L267 111L267 112L267 117L265 119L260 121L256 121L252 119L251 116L251 112L251 111L251 110L251 109L251 108L251 107L251 106L251 105L251 104L251 103L251 102L251 101L251 100L251 99L251 98L251 97L251 96L251 95L251 94L251 93L251 92L251 91L251 90L251 89L251 88L251 87L251 86L251 85L251 81L247 81L246 81L245 81L244 81L243 81L242 81L241 81L240 81L236 81z"/>
<path style="fill:#fefefe; stroke:none;" d="M516 81L517 82L516 81M21 84L22 85L21 84M71 85L72 86L71 85M159 87L160 88L159 87M165 87L166 88L165 87M87 88L88 89L87 88M123 89L124 90L123 89z"/>
<path style="fill:#ffffff; stroke:none;" d="M467 90L463 91L461 93L460 99L462 102L465 104L469 104L472 103L475 99L475 95L472 91L467 90z"/>
<path style="fill:#fefefe; stroke:none;" d="M94 91L95 92L94 91M295 92L296 93L295 92M501 92L502 93L501 92M97 93L98 94L97 93M490 93L491 94L490 93M324 96L325 97L324 96M407 96L408 97L407 96M100 98L101 99L100 98M493 101L494 102L493 101M22 102L23 103L22 102M36 103L37 104L36 103M232 104L233 105L232 104M233 106L234 107L233 106M291 109L292 110L291 109M497 109L498 110L497 109M426 110L427 111L426 110M57 114L58 115L57 114M138 114L139 115L138 114M266 114L267 115L266 114M323 114L324 115L323 114M499 114L500 115L499 114M313 115L314 116L313 115M260 117L261 118L260 117M25 119L26 120L25 119M63 125L64 126L63 125M16 127L17 128L16 127M122 129L123 130L122 129M184 129L185 130L184 129z"/>
<path style="fill:#ffffff; stroke:none;" d="M460 129L458 131L458 136L461 138L466 137L467 137L469 138L475 138L479 135L479 132L477 130L474 129L470 129L469 129L468 129L467 129L460 129z"/>
<path style="fill:#fefefe; stroke:none;" d="M351 130L352 131L351 130z"/>
<path style="fill:#000000; stroke:none;" d="M35 131L35 135L35 136L35 137L35 138L35 139L35 140L35 141L35 142L35 143L35 144L35 145L35 146L35 150L39 151L40 153L42 153L42 154L44 154L46 155L47 157L49 157L49 158L51 158L53 159L54 161L56 161L56 162L58 162L60 163L61 165L65 166L66 168L68 168L68 169L70 169L72 170L73 172L75 172L75 173L77 173L79 174L80 176L82 176L82 177L84 177L86 178L87 180L89 181L92 181L94 180L94 179L96 179L98 178L99 176L101 176L101 175L103 175L105 174L106 172L108 172L108 171L110 171L112 170L113 168L115 168L115 167L117 167L119 166L120 164L122 164L122 163L124 163L126 162L127 160L129 160L129 159L131 159L133 158L134 156L136 156L136 155L138 155L140 154L141 152L146 150L146 146L146 145L146 144L146 143L146 142L146 141L146 140L146 139L146 138L146 137L146 136L146 135L146 131L141 133L138 135L138 145L136 147L132 148L131 150L129 150L129 151L127 151L125 152L124 154L122 154L122 155L120 155L118 156L117 158L115 158L115 159L113 159L111 160L110 162L108 162L108 163L106 163L104 164L103 166L101 166L101 167L99 167L97 168L96 170L94 170L94 171L92 172L89 172L87 171L86 169L84 169L84 168L82 168L80 167L79 165L75 164L74 162L72 162L72 161L70 161L68 160L67 158L65 158L65 157L63 157L61 156L60 154L56 153L55 151L53 151L53 150L51 150L49 149L48 147L43 145L43 135L35 131M52 131L52 140L55 141L55 142L57 142L59 143L60 145L62 145L62 146L64 146L66 147L67 149L69 149L69 150L71 150L73 151L74 153L76 153L76 154L78 154L80 155L81 157L83 157L83 158L85 158L87 159L88 161L92 162L95 160L95 159L97 159L99 158L100 156L102 156L102 155L104 155L106 154L107 152L109 152L109 151L111 151L113 150L114 148L116 148L116 147L118 147L120 146L121 144L125 143L126 141L130 140L130 131L127 133L121 135L120 137L118 137L118 138L116 138L114 139L113 141L111 141L111 142L109 142L107 143L106 145L102 146L101 148L99 148L99 149L97 149L95 150L94 152L92 153L90 153L86 151L85 149L83 149L83 148L81 148L79 147L78 145L74 144L73 142L71 142L71 141L69 141L67 140L66 138L62 137L61 135L59 135L59 134L57 134L52 131z"/>
<path style="fill:#fefefe; stroke:none;" d="M164 131L165 132L164 131M389 131L390 132L389 131M470 131L471 132L470 131M246 133L247 134L246 133M336 137L337 138L336 137M466 137L467 138L466 137M100 138L101 139L100 138M355 138L356 139L355 138M220 139L221 140L220 139M243 139L244 140L243 139M320 140L321 141L320 140M163 141L164 142L163 141M241 142L242 143L241 142M129 143L130 144L129 143M379 145L380 146L379 145M227 147L228 148L227 147M260 147L261 148L260 147M438 147L439 148L438 147M311 148L312 149L311 148M412 150L413 151L412 150M65 151L66 152L65 151M403 151L404 152L403 151M153 153L154 154L153 153M260 154L261 155L260 154M134 156L135 157L134 156M306 156L307 157L306 156M175 158L176 159L175 158M261 159L262 160L261 159z"/>
<path style="fill:#000000; stroke:none;" d="M256 160L252 163L251 166L251 169L252 172L255 175L262 174L262 167L258 167L261 169L261 173L257 174L254 172L253 169L253 166L254 163L255 162L257 161L262 162L262 161L260 160L256 160M266 160L266 164L266 165L266 166L266 167L266 168L266 169L266 170L266 171L266 175L274 175L274 173L268 173L268 168L273 168L273 166L268 166L268 162L274 162L274 160L272 160L266 160M276 160L276 161L281 162L281 166L281 167L281 168L281 169L281 175L282 175L282 172L282 162L287 162L287 160L285 160L276 160M295 161L293 166L293 169L294 172L297 175L302 175L305 172L306 169L306 166L305 163L302 160L298 160L295 161M309 160L309 164L309 165L309 166L309 167L309 168L309 169L309 170L309 171L309 175L310 175L311 173L311 168L314 169L319 175L316 171L316 168L318 167L318 161L315 160L309 160M325 160L321 165L321 170L323 173L324 174L325 175L332 174L332 167L328 167L331 169L329 174L323 171L323 164L327 161L332 162L332 161L330 160L325 160M339 160L338 164L337 164L337 167L336 167L336 170L335 170L334 175L335 175L337 170L342 170L344 175L345 175L344 172L344 169L343 169L343 166L342 166L342 163L341 160L339 160M348 160L348 164L348 165L348 166L348 167L348 168L348 169L348 170L348 171L348 175L349 175L349 172L349 163L350 163L351 166L352 166L352 168L353 170L355 171L358 175L358 171L358 170L358 169L358 168L358 167L358 166L358 165L358 164L358 160L357 160L357 163L357 172L356 172L354 169L352 163L348 160M362 160L362 164L362 165L362 166L362 167L363 175L364 175L364 171L364 170L364 169L364 168L364 167L364 166L364 165L364 164L364 160L362 160M368 160L368 162L374 162L373 166L371 167L371 169L369 170L367 175L377 175L377 173L375 173L372 173L370 173L372 170L372 168L374 167L374 165L377 160L368 160M380 160L380 164L380 165L380 166L380 167L380 168L380 169L380 170L380 171L380 175L388 175L388 173L382 173L382 168L387 168L387 166L382 166L382 162L388 162L388 160L386 160L380 160M392 160L392 164L392 165L392 166L392 167L392 168L392 169L392 170L392 171L392 175L396 175L396 174L400 174L402 171L402 163L398 160L392 160z"/>
<path style="fill:#ffffff; stroke:none;" d="M298 161L295 165L296 172L297 173L299 174L300 174L302 173L303 172L304 170L304 164L301 161L298 161M311 161L311 167L317 166L317 163L316 162L311 161M394 161L394 165L394 166L394 167L394 168L394 173L399 173L401 169L400 163L399 162L394 161z"/>
<path style="fill:#fefefe; stroke:none;" d="M25 162L26 163L25 162M199 162L200 163L199 162z"/>
<path style="fill:#ffffff; stroke:none;" d="M339 162L338 169L342 169L339 162z"/>
<path style="fill:#fefefe; stroke:none;" d="M410 162L411 163L410 162M523 162L524 163L523 162M79 164L80 165L79 164M47 166L48 167L47 166M530 166L531 167L530 166M245 167L246 168L245 167M497 167L498 168L497 167M43 168L44 169L43 168M92 168L93 169L92 168M436 168L437 169L436 168M36 170L37 171L36 170M116 170L117 171L116 170M10 171L11 172L10 171M506 171L507 172L506 171M391 173L392 174L391 173M487 175L488 176L487 175M528 175L529 176L528 175M80 176L81 177L80 176M174 176L175 177L174 176M22 180L23 181L22 180M404 180L405 181L404 180M199 183L200 184L199 183M399 183L400 184L399 183M488 183L489 184L488 183M168 184L169 185L168 184M383 184L384 185L383 184M545 184L546 185L545 184M61 185L62 186L61 185M496 185L497 186L496 185M70 187L71 188L70 187M91 188L92 189L91 188M294 188L295 189L294 188M168 189L169 190L168 189M503 189L504 190L503 189M511 190L512 191L511 190M81 191L82 192L81 191M103 192L104 193L103 192M57 193L58 194L57 193M302 193L303 194L302 193M231 194L232 195L231 194M547 195L548 196L547 195M448 196L449 197L448 196M7 197L8 198L7 197M341 198L342 199L341 198M466 199L467 200L466 199M368 201L369 202L368 201M477 201L478 202L477 201M142 202L143 203L142 202M314 202L315 203L314 202M30 203L31 204L30 203M190 203L191 204L190 203M438 203L439 204L438 203M92 204L93 205L92 204M139 204L140 205L139 204M332 205L333 206L332 205M132 206L133 207L132 206M448 207L449 208L448 207M134 208L135 209L134 208M437 208L438 209L437 208M250 209L251 210L250 209M285 210L286 211L285 210M99 212L100 213L99 212M471 212L472 213L471 212M547 212L548 213L547 212M248 213L249 214L248 213M281 214L282 215L281 214M328 216L329 217L328 216M331 217L332 218L331 217M499 218L500 219L499 218M34 219L35 220L34 219M244 220L245 221L244 220M47 221L48 222L47 221M218 221L219 222L218 221M320 222L321 223L320 222M310 224L311 225L310 224M510 226L511 227L510 226M227 229L228 230L227 229M269 229L270 230L269 229M449 229L450 230L449 229M295 230L296 231L295 230M396 230L397 231L396 230M78 231L79 232L78 231M441 231L442 232L441 231M429 232L430 233L429 232M202 233L203 234L202 233M326 233L327 234L326 233M113 235L114 236L113 235M481 235L482 236L481 235M18 236L19 237L18 236M413 236L414 237L413 236M365 237L366 238L365 237M28 238L29 239L28 238M51 238L52 239L51 238M101 238L102 239L101 238M81 239L82 240L81 239M494 240L495 241L494 240M521 240L522 241L521 240z"/>
</svg>
